<svg width="60" height="60" viewBox="0 0 60 60" fill="none" xmlns="http://www.w3.org/2000/svg">
<path d="M32.375 55C21.1175 55 11.2625 47.4 8.35001 36.4675C5.43751 25.535 10.1925 13.9975 19.945 8.34248C24.6857 5.59294 30.2044 4.49352 35.6368 5.21646C41.0692 5.93939 46.1084 8.44384 49.965 12.3375L41.6275 20.755C40.4207 19.5454 38.9867 18.5864 37.408 17.933C35.8292 17.2797 34.1369 16.9449 32.4282 16.9479C30.7196 16.9509 29.0285 17.2917 27.4521 17.9506C25.8756 18.6096 24.445 19.5737 23.2425 20.7875C20.8052 23.2456 19.4376 26.5671 19.4376 30.0287C19.4376 33.4904 20.8052 36.8119 23.2425 39.27C24.445 40.4838 25.8756 41.4479 27.4521 42.1068C29.0285 42.7658 30.7196 43.1066 32.4282 43.1096C34.1369 43.1126 35.8292 42.7778 37.408 42.1244C38.9867 41.4711 40.4207 40.512 41.6275 39.3025L50 47.72C47.6896 50.0386 44.9421 51.876 41.9168 53.1256C38.8914 54.3752 35.6483 55.0123 32.375 55Z" stroke="#0083D3" stroke-width="4" stroke-linecap="round" stroke-linejoin="round"/>
</svg>