
<svg width="270" height="217" viewBox="0 0 270 217" fill="none" xmlns="http://www.w3.org/2000/svg">
<g clip-path="url(#clip0_57_2098)">
<rect x="0.5" y="0.5" width="269" height="216" rx="4.5" fill="white" stroke="#DBDBDB"/>
<path d="M108.596 37V27.2H109.632V37H108.596ZM116.363 29.58C116.96 29.58 117.483 29.6967 117.931 29.93C118.388 30.154 118.743 30.4993 118.995 30.966C119.256 31.4327 119.387 32.0207 119.387 32.73V37H118.393V32.828C118.393 32.0533 118.197 31.47 117.805 31.078C117.422 30.6767 116.881 30.476 116.181 30.476C115.658 30.476 115.201 30.5833 114.809 30.798C114.426 31.0033 114.127 31.3067 113.913 31.708C113.707 32.1 113.605 32.576 113.605 33.136V37H112.611V29.65H113.563V31.666L113.409 31.288C113.642 30.756 114.015 30.3407 114.529 30.042C115.042 29.734 115.653 29.58 116.363 29.58ZM123.825 37L120.563 29.65H121.599L124.595 36.468H124.105L127.143 29.65H128.123L124.847 37H123.825ZM132.44 37.07C131.674 37.07 131.002 36.9113 130.424 36.594C129.845 36.2673 129.392 35.824 129.066 35.264C128.739 34.6947 128.576 34.046 128.576 33.318C128.576 32.59 128.73 31.946 129.038 31.386C129.355 30.826 129.784 30.3873 130.326 30.07C130.876 29.7433 131.492 29.58 132.174 29.58C132.864 29.58 133.476 29.7387 134.008 30.056C134.549 30.364 134.974 30.8027 135.282 31.372C135.59 31.932 135.744 32.5807 135.744 33.318C135.744 33.3647 135.739 33.416 135.73 33.472C135.73 33.5187 135.73 33.57 135.73 33.626H129.332V32.884H135.198L134.806 33.178C134.806 32.646 134.689 32.1747 134.456 31.764C134.232 31.344 133.924 31.0173 133.532 30.784C133.14 30.5507 132.687 30.434 132.174 30.434C131.67 30.434 131.217 30.5507 130.816 30.784C130.414 31.0173 130.102 31.344 129.878 31.764C129.654 32.184 129.542 32.6647 129.542 33.206V33.36C129.542 33.92 129.663 34.4147 129.906 34.844C130.158 35.264 130.503 35.5953 130.942 35.838C131.39 36.0713 131.898 36.188 132.468 36.188C132.916 36.188 133.331 36.1087 133.714 35.95C134.106 35.7913 134.442 35.5487 134.722 35.222L135.282 35.866C134.955 36.258 134.544 36.5567 134.05 36.762C133.564 36.9673 133.028 37.07 132.44 37.07ZM139.741 37.07C139.134 37.07 138.56 36.986 138.019 36.818C137.478 36.6407 137.053 36.4213 136.745 36.16L137.193 35.376C137.492 35.6 137.874 35.796 138.341 35.964C138.808 36.1227 139.298 36.202 139.811 36.202C140.511 36.202 141.015 36.0947 141.323 35.88C141.631 35.656 141.785 35.362 141.785 34.998C141.785 34.7273 141.696 34.5173 141.519 34.368C141.351 34.2093 141.127 34.0927 140.847 34.018C140.567 33.934 140.254 33.864 139.909 33.808C139.564 33.752 139.218 33.6867 138.873 33.612C138.537 33.5373 138.229 33.43 137.949 33.29C137.669 33.1407 137.44 32.94 137.263 32.688C137.095 32.436 137.011 32.1 137.011 31.68C137.011 31.2787 137.123 30.9193 137.347 30.602C137.571 30.2847 137.898 30.0373 138.327 29.86C138.766 29.6733 139.298 29.58 139.923 29.58C140.399 29.58 140.875 29.6453 141.351 29.776C141.827 29.8973 142.219 30.0607 142.527 30.266L142.093 31.064C141.766 30.84 141.416 30.6813 141.043 30.588C140.67 30.4853 140.296 30.434 139.923 30.434C139.26 30.434 138.77 30.5507 138.453 30.784C138.145 31.008 137.991 31.2973 137.991 31.652C137.991 31.932 138.075 32.1513 138.243 32.31C138.42 32.4687 138.649 32.5947 138.929 32.688C139.218 32.772 139.531 32.842 139.867 32.898C140.212 32.954 140.553 33.024 140.889 33.108C141.234 33.1827 141.547 33.29 141.827 33.43C142.116 33.5607 142.345 33.752 142.513 34.004C142.69 34.2467 142.779 34.5687 142.779 34.97C142.779 35.3993 142.658 35.7727 142.415 36.09C142.182 36.398 141.836 36.6407 141.379 36.818C140.931 36.986 140.385 37.07 139.741 37.07ZM146.927 37.07C146.236 37.07 145.704 36.8833 145.331 36.51C144.957 36.1367 144.771 35.6093 144.771 34.928V28.026H145.765V34.872C145.765 35.3013 145.872 35.6327 146.087 35.866C146.311 36.0993 146.628 36.216 147.039 36.216C147.477 36.216 147.841 36.09 148.131 35.838L148.481 36.552C148.285 36.7293 148.047 36.86 147.767 36.944C147.496 37.028 147.216 37.07 146.927 37.07ZM143.455 30.476V29.65H148.005V30.476H143.455ZM153.027 37.07C152.317 37.07 151.678 36.9113 151.109 36.594C150.549 36.2673 150.105 35.824 149.779 35.264C149.452 34.6947 149.289 34.046 149.289 33.318C149.289 32.5807 149.452 31.932 149.779 31.372C150.105 30.812 150.549 30.3733 151.109 30.056C151.669 29.7387 152.308 29.58 153.027 29.58C153.755 29.58 154.399 29.7387 154.959 30.056C155.528 30.3733 155.971 30.812 156.289 31.372C156.615 31.932 156.779 32.5807 156.779 33.318C156.779 34.046 156.615 34.6947 156.289 35.264C155.971 35.824 155.528 36.2673 154.959 36.594C154.389 36.9113 153.745 37.07 153.027 37.07ZM153.027 36.188C153.559 36.188 154.03 36.0713 154.441 35.838C154.851 35.5953 155.173 35.2593 155.407 34.83C155.649 34.3913 155.771 33.8873 155.771 33.318C155.771 32.7393 155.649 32.2353 155.407 31.806C155.173 31.3767 154.851 31.0453 154.441 30.812C154.03 30.5693 153.563 30.448 153.041 30.448C152.518 30.448 152.051 30.5693 151.641 30.812C151.23 31.0453 150.903 31.3767 150.661 31.806C150.418 32.2353 150.297 32.7393 150.297 33.318C150.297 33.8873 150.418 34.3913 150.661 34.83C150.903 35.2593 151.23 35.5953 151.641 35.838C152.051 36.0713 152.513 36.188 153.027 36.188ZM158.808 37V29.65H159.76V31.652L159.662 31.302C159.867 30.742 160.213 30.3173 160.698 30.028C161.183 29.7293 161.785 29.58 162.504 29.58V30.546C162.467 30.546 162.429 30.546 162.392 30.546C162.355 30.5367 162.317 30.532 162.28 30.532C161.505 30.532 160.899 30.77 160.46 31.246C160.021 31.7127 159.802 32.38 159.802 33.248V37H158.808Z" fill="black"/>
<path fill-rule="evenodd" clip-rule="evenodd" d="M259.81 105.945L189.469 211.164C187.934 213.459 184.829 214.076 182.533 212.542L3.72908 93.0072L14.6982 46.9998L259.81 105.945Z" fill="url(#paint0_linear_57_2098)"/>
<path fill-rule="evenodd" clip-rule="evenodd" d="M269 77.0771V211C269 213.762 266.761 216 264 216H48.842L30 165.209L269 77.0771Z" fill="url(#paint1_linear_57_2098)"/>
<path fill-rule="evenodd" clip-rule="evenodd" d="M82.4517 216C86.0324 199.302 87.918 181.968 87.918 164.191C87.918 101.46 64.4386 44.2528 25.849 1L6 1C3.23858 1 1 3.23858 1 6V211C1 213.761 3.23857 216 5.99999 216H82.4517Z" fill="url(#paint2_linear_57_2098)"/>
<path d="M67 217V207.25C67 189.149 74.1643 171.789 86.9167 158.99C99.6692 146.191 116.965 139 135 139C153.035 139 170.331 146.191 183.083 158.99C195.836 171.789 203 189.149 203 207.25V217M135 139C145.306 139 155.189 134.891 162.476 127.577C169.763 120.263 173.857 110.343 173.857 100C173.857 89.6566 169.763 79.7368 162.476 72.4228C155.189 65.1089 145.306 61 135 61C124.694 61 114.811 65.1089 107.524 72.4228C100.237 79.7368 96.1429 89.6566 96.1429 100C96.1429 110.343 100.237 120.263 107.524 127.577C114.811 134.891 124.694 139 135 139Z" fill="#E0E0E0"/>
</g>
<defs>
<linearGradient id="paint0_linear_57_2098" x1="171" y1="108.5" x2="172.448" y2="59.1745" gradientUnits="userSpaceOnUse">
<stop stop-color="#F9F9F8"/>
<stop offset="1" stop-color="#F2F3F2"/>
</linearGradient>
<linearGradient id="paint1_linear_57_2098" x1="283.825" y1="183.536" x2="152.675" y2="106.647" gradientUnits="userSpaceOnUse">
<stop stop-color="#F9F9F8"/>
<stop offset="1" stop-color="#ECECEB"/>
</linearGradient>
<linearGradient id="paint2_linear_57_2098" x1="139.918" y1="161.46" x2="-0.994501" y2="51.0599" gradientUnits="userSpaceOnUse">
<stop stop-color="#F9F9F8"/>
<stop offset="0.750777" stop-color="#ECECEB"/>
</linearGradient>
<clipPath id="clip0_57_2098">
<rect width="270" height="217" fill="white"/>
</clipPath>
</defs>
</svg>
