<svg width="64" height="60" viewBox="0 0 64 60" fill="none" xmlns="http://www.w3.org/2000/svg">
<g clip-path="url(#clip0_1068_1324)">
<path d="M62.5165 0L35.0547 20.3197L40.1615 8.34475L62.5165 0Z" fill="#E17726"/>
<path d="M1.54775 0.0244141L23.843 8.34666L28.692 20.4787L1.54775 0.0244141ZM51.465 43.2149L63.6027 43.4459L59.3607 57.8564L44.55 53.7787L51.465 43.2149ZM12.5347 43.2149L19.424 53.7787L4.63825 57.8567L0.421997 43.4459L12.5347 43.2149Z" fill="#E27625"/>
<path d="M28.0328 17.3877L28.5288 33.4085L13.686 32.7332L17.908 26.3637L17.9615 26.3025L28.0328 17.3877ZM35.8135 17.209L46.0385 26.303L46.0915 26.364L50.3135 32.7335L35.474 33.4085L35.8135 17.209ZM19.8588 43.2607L27.9633 49.5755L18.5488 54.1207L19.8588 43.2607ZM44.1428 43.2597L45.4255 54.121L36.0373 49.575L44.1428 43.2597Z" fill="#E27625"/>
<path d="M36.2445 48.9805L45.7713 53.5935L36.9095 57.805L37.0015 55.0215L36.2445 48.9805ZM27.7528 48.9825L27.0255 54.976L27.0853 57.8017L18.2028 53.5935L27.7528 48.9825Z" fill="#D5BFB2"/>
<path d="M25.0018 35.5L27.4913 40.732L19.0155 38.249L25.0018 35.5ZM38.998 35.5005L45.0125 38.249L36.509 40.7313L38.998 35.5005Z" fill="#233447"/>
<path d="M20.5065 43.2074L19.1365 54.4674L11.7932 43.4537L20.5065 43.2074ZM43.494 43.2077L52.2075 43.4537L44.8367 54.4679L43.494 43.2077ZM50.528 32.0967L44.1867 38.5594L39.2975 36.3252L36.9567 41.2462L35.4222 32.7839L50.528 32.0967ZM13.4687 32.0967L28.5775 32.7839L27.0427 41.2462L24.7015 36.3259L19.8382 38.5597L13.4687 32.0967Z" fill="#CC6228"/>
<path d="M13.0415 30.7708L20.216 38.0511L20.4645 45.2383L13.0415 30.7708ZM50.9658 30.7578L43.5293 45.2511L43.8093 38.0511L50.9658 30.7578ZM28.2268 31.2143L28.5155 33.0318L29.229 37.5596L28.7703 51.4658L26.6015 40.2946L26.6008 40.1791L28.2268 31.2143ZM35.7695 31.1891L37.3998 40.1791L37.399 40.2946L35.2248 51.4938L35.1388 48.6926L34.7995 37.4771L35.7695 31.1891Z" fill="#E27525"/>
<path d="M44.447 37.7617L44.2043 44.0062L36.6358 49.903L35.1058 48.822L36.8208 39.9882L44.447 37.7617ZM19.5793 37.7617L27.179 39.9882L28.894 48.822L27.364 49.903L19.7953 44.0057L19.5793 37.7617Z" fill="#F5841F"/>
<path d="M16.7545 52.2148L26.4375 56.8028L26.3965 54.8436L27.2067 54.1323H36.7902L37.6297 54.8411L37.5677 56.7988L47.1895 52.2263L42.5075 56.0953L36.8462 59.9836H27.129L21.4715 56.0793L16.7545 52.2148Z" fill="#C0AC9D"/>
<path d="M35.551 48.3701L36.92 49.3374L37.7223 55.7384L36.5613 54.7581H27.4423L26.3033 55.7581L27.0793 49.3379L28.4488 48.3701H35.551Z" fill="#161616"/>
<path d="M60.7035 0.5625L64 10.4517L61.9412 20.451L63.4072 21.5818L61.4235 23.0952L62.9145 24.2467L60.9403 26.0445L62.1522 26.9223L58.9357 30.6787L45.7433 26.8375L45.629 26.7763L36.1222 18.7568L60.7035 0.5625ZM3.2965 0.5625L27.878 18.7568L18.371 26.7763L18.2568 26.8375L5.06425 30.6787L1.84775 26.9223L3.05875 26.0452L1.08575 24.2467L2.57375 23.0965L0.56025 21.5788L2.0815 20.4473L0 10.4522L3.2965 0.5625Z" fill="#763E1A"/>
<path d="M45.098 25.9978L59.0763 30.0676L63.6175 44.0641H51.6365L43.3815 44.1681L49.385 32.4661L45.098 25.9978ZM18.902 25.9978L14.6142 32.4661L20.6185 44.1681L12.3672 44.0641H0.407745L4.9235 30.0678L18.902 25.9978ZM40.846 8.27832L36.9362 18.8381L36.1065 33.1031L35.789 37.5743L35.7637 48.9963H28.236L28.2115 37.5958L27.893 33.0993L27.063 18.8381L23.1537 8.27832H40.846Z" fill="#F5841F"/>
</g>
<defs>
<clipPath id="clip0_1068_1324">
<rect width="64" height="60" fill="white"/>
</clipPath>
</defs>
</svg>