
<svg width="270" height="217" viewBox="0 0 270 217"
 xmlns="http://www.w3.org/2000/svg">
<g clip-path="url(#clip0_57_2084)">
<rect x="0.5" y="0.5" width="269" height="216" rx="4.5" />
<path d="M79.298 37.084C78.57 37.084 77.87 36.9673 77.198 36.734C76.5353 36.4913 76.022 36.1833 75.658 35.81L76.064 35.012C76.4093 35.348 76.8713 35.6327 77.45 35.866C78.038 36.09 78.654 36.202 79.298 36.202C79.914 36.202 80.4133 36.1273 80.796 35.978C81.188 35.8193 81.4727 35.6093 81.65 35.348C81.8367 35.0867 81.93 34.7973 81.93 34.48C81.93 34.0973 81.818 33.7893 81.594 33.556C81.3793 33.3227 81.0947 33.1407 80.74 33.01C80.3853 32.87 79.9933 32.7487 79.564 32.646C79.1347 32.5433 78.7053 32.436 78.276 32.324C77.8467 32.2027 77.45 32.044 77.086 31.848C76.7313 31.652 76.442 31.3953 76.218 31.078C76.0033 30.7513 75.896 30.3267 75.896 29.804C75.896 29.3187 76.022 28.8753 76.274 28.474C76.5353 28.0633 76.932 27.7367 77.464 27.494C77.996 27.242 78.6773 27.116 79.508 27.116C80.0587 27.116 80.6047 27.1953 81.146 27.354C81.6873 27.5033 82.154 27.7133 82.546 27.984L82.196 28.81C81.776 28.53 81.328 28.3247 80.852 28.194C80.3853 28.0633 79.9327 27.998 79.494 27.998C78.906 27.998 78.4207 28.0773 78.038 28.236C77.6553 28.3947 77.3707 28.6093 77.184 28.88C77.0067 29.1413 76.918 29.44 76.918 29.776C76.918 30.1587 77.0253 30.4667 77.24 30.7C77.464 30.9333 77.7533 31.1153 78.108 31.246C78.472 31.3767 78.8687 31.4933 79.298 31.596C79.7273 31.6987 80.152 31.8107 80.572 31.932C81.0013 32.0533 81.3933 32.212 81.748 32.408C82.112 32.5947 82.4013 32.8467 82.616 33.164C82.84 33.4813 82.952 33.8967 82.952 34.41C82.952 34.886 82.8213 35.3293 82.56 35.74C82.2987 36.1413 81.8973 36.468 81.356 36.72C80.824 36.9627 80.138 37.084 79.298 37.084ZM84.9186 39.786C84.5732 39.786 84.2419 39.73 83.9246 39.618C83.6166 39.506 83.3506 39.338 83.1266 39.114L83.5886 38.372C83.7752 38.5493 83.9759 38.6847 84.1906 38.778C84.4146 38.8807 84.6619 38.932 84.9326 38.932C85.2592 38.932 85.5392 38.8387 85.7726 38.652C86.0152 38.4747 86.2439 38.1573 86.4586 37.7L86.9346 36.622L87.0466 36.468L90.0706 29.65H91.0506L87.3686 37.882C87.1632 38.358 86.9346 38.736 86.6826 39.016C86.4399 39.296 86.1739 39.492 85.8846 39.604C85.5952 39.7253 85.2732 39.786 84.9186 39.786ZM86.8786 37.21L83.4906 29.65H84.5266L87.5226 36.398L86.8786 37.21ZM96.2025 29.58C96.7998 29.58 97.3225 29.6967 97.7705 29.93C98.2278 30.154 98.5825 30.4993 98.8345 30.966C99.0958 31.4327 99.2265 32.0207 99.2265 32.73V37H98.2325V32.828C98.2325 32.0533 98.0365 31.47 97.6445 31.078C97.2618 30.6767 96.7205 30.476 96.0205 30.476C95.4978 30.476 95.0405 30.5833 94.6485 30.798C94.2658 31.0033 93.9671 31.3067 93.7525 31.708C93.5471 32.1 93.4445 32.576 93.4445 33.136V37H92.4505V29.65H93.4025V31.666L93.2485 31.288C93.4818 30.756 93.8551 30.3407 94.3685 30.042C94.8818 29.734 95.4931 29.58 96.2025 29.58ZM104.837 37.07C104.137 37.07 103.507 36.9113 102.947 36.594C102.397 36.2767 101.963 35.838 101.645 35.278C101.328 34.7087 101.169 34.0553 101.169 33.318C101.169 32.5713 101.328 31.918 101.645 31.358C101.963 30.798 102.397 30.364 102.947 30.056C103.507 29.7387 104.137 29.58 104.837 29.58C105.481 29.58 106.055 29.7247 106.559 30.014C107.073 30.3033 107.479 30.728 107.777 31.288C108.085 31.8387 108.239 32.5153 108.239 33.318C108.239 34.1113 108.09 34.788 107.791 35.348C107.493 35.908 107.087 36.3373 106.573 36.636C106.069 36.9253 105.491 37.07 104.837 37.07ZM104.907 36.188C105.43 36.188 105.897 36.0713 106.307 35.838C106.727 35.5953 107.054 35.2593 107.287 34.83C107.53 34.3913 107.651 33.8873 107.651 33.318C107.651 32.7393 107.53 32.2353 107.287 31.806C107.054 31.3767 106.727 31.0453 106.307 30.812C105.897 30.5693 105.43 30.448 104.907 30.448C104.394 30.448 103.932 30.5693 103.521 30.812C103.111 31.0453 102.784 31.3767 102.541 31.806C102.299 32.2353 102.177 32.7393 102.177 33.318C102.177 33.8873 102.299 34.3913 102.541 34.83C102.784 35.2593 103.111 35.5953 103.521 35.838C103.932 36.0713 104.394 36.188 104.907 36.188ZM107.679 37V34.788L107.777 33.304L107.637 31.82V26.612H108.631V37H107.679ZM111.4 37V29.65H112.394V37H111.4ZM111.904 28.026C111.698 28.026 111.526 27.956 111.386 27.816C111.246 27.676 111.176 27.508 111.176 27.312C111.176 27.116 111.246 26.9527 111.386 26.822C111.526 26.682 111.698 26.612 111.904 26.612C112.109 26.612 112.282 26.6773 112.422 26.808C112.562 26.9387 112.632 27.102 112.632 27.298C112.632 27.5033 112.562 27.676 112.422 27.816C112.291 27.956 112.118 28.026 111.904 28.026ZM118.211 37.07C117.483 37.07 116.83 36.9113 116.251 36.594C115.682 36.2673 115.234 35.824 114.907 35.264C114.581 34.6947 114.417 34.046 114.417 33.318C114.417 32.5807 114.581 31.932 114.907 31.372C115.234 30.812 115.682 30.3733 116.251 30.056C116.83 29.7387 117.483 29.58 118.211 29.58C118.837 29.58 119.401 29.7013 119.905 29.944C120.409 30.1867 120.806 30.5507 121.095 31.036L120.353 31.54C120.101 31.1667 119.789 30.8913 119.415 30.714C119.042 30.5367 118.636 30.448 118.197 30.448C117.675 30.448 117.203 30.5693 116.783 30.812C116.363 31.0453 116.032 31.3767 115.789 31.806C115.547 32.2353 115.425 32.7393 115.425 33.318C115.425 33.8967 115.547 34.4007 115.789 34.83C116.032 35.2593 116.363 35.5953 116.783 35.838C117.203 36.0713 117.675 36.188 118.197 36.188C118.636 36.188 119.042 36.0993 119.415 35.922C119.789 35.7447 120.101 35.474 120.353 35.11L121.095 35.614C120.806 36.09 120.409 36.454 119.905 36.706C119.401 36.9487 118.837 37.07 118.211 37.07ZM127.654 37V35.376L127.612 35.11V32.394C127.612 31.7687 127.435 31.288 127.08 30.952C126.735 30.616 126.217 30.448 125.526 30.448C125.05 30.448 124.597 30.5273 124.168 30.686C123.739 30.8447 123.375 31.0547 123.076 31.316L122.628 30.574C123.001 30.2567 123.449 30.014 123.972 29.846C124.495 29.6687 125.045 29.58 125.624 29.58C126.576 29.58 127.309 29.818 127.822 30.294C128.345 30.7607 128.606 31.4747 128.606 32.436V37H127.654ZM125.12 37.07C124.569 37.07 124.089 36.9813 123.678 36.804C123.277 36.6173 122.969 36.3653 122.754 36.048C122.539 35.7213 122.432 35.348 122.432 34.928C122.432 34.5453 122.521 34.2 122.698 33.892C122.885 33.5747 123.183 33.3227 123.594 33.136C124.014 32.94 124.574 32.842 125.274 32.842H127.808V33.584H125.302C124.593 33.584 124.098 33.71 123.818 33.962C123.547 34.214 123.412 34.5267 123.412 34.9C123.412 35.32 123.575 35.656 123.902 35.908C124.229 36.16 124.686 36.286 125.274 36.286C125.834 36.286 126.315 36.16 126.716 35.908C127.127 35.6467 127.425 35.2733 127.612 34.788L127.836 35.474C127.649 35.9593 127.323 36.3467 126.856 36.636C126.399 36.9253 125.82 37.07 125.12 37.07ZM133.63 37.07C132.939 37.07 132.407 36.8833 132.034 36.51C131.661 36.1367 131.474 35.6093 131.474 34.928V28.026H132.468V34.872C132.468 35.3013 132.575 35.6327 132.79 35.866C133.014 36.0993 133.331 36.216 133.742 36.216C134.181 36.216 134.545 36.09 134.834 35.838L135.184 36.552C134.988 36.7293 134.75 36.86 134.47 36.944C134.199 37.028 133.919 37.07 133.63 37.07ZM130.158 30.476V29.65H134.708V30.476H130.158ZM139.856 37.07C139.09 37.07 138.418 36.9113 137.84 36.594C137.261 36.2673 136.808 35.824 136.482 35.264C136.155 34.6947 135.992 34.046 135.992 33.318C135.992 32.59 136.146 31.946 136.454 31.386C136.771 30.826 137.2 30.3873 137.742 30.07C138.292 29.7433 138.908 29.58 139.59 29.58C140.28 29.58 140.892 29.7387 141.424 30.056C141.965 30.364 142.39 30.8027 142.698 31.372C143.006 31.932 143.16 32.5807 143.16 33.318C143.16 33.3647 143.155 33.416 143.146 33.472C143.146 33.5187 143.146 33.57 143.146 33.626H136.748V32.884H142.614L142.222 33.178C142.222 32.646 142.105 32.1747 141.872 31.764C141.648 31.344 141.34 31.0173 140.948 30.784C140.556 30.5507 140.103 30.434 139.59 30.434C139.086 30.434 138.633 30.5507 138.232 30.784C137.83 31.0173 137.518 31.344 137.294 31.764C137.07 32.184 136.958 32.6647 136.958 33.206V33.36C136.958 33.92 137.079 34.4147 137.322 34.844C137.574 35.264 137.919 35.5953 138.358 35.838C138.806 36.0713 139.314 36.188 139.884 36.188C140.332 36.188 140.747 36.1087 141.13 35.95C141.522 35.7913 141.858 35.5487 142.138 35.222L142.698 35.866C142.371 36.258 141.96 36.5567 141.466 36.762C140.98 36.9673 140.444 37.07 139.856 37.07ZM149.057 37V27.2H150.093V36.104H155.581V37H149.057ZM160.104 37.07C159.338 37.07 158.666 36.9113 158.088 36.594C157.509 36.2673 157.056 35.824 156.73 35.264C156.403 34.6947 156.24 34.046 156.24 33.318C156.24 32.59 156.394 31.946 156.702 31.386C157.019 30.826 157.448 30.3873 157.99 30.07C158.54 29.7433 159.156 29.58 159.838 29.58C160.528 29.58 161.14 29.7387 161.672 30.056C162.213 30.364 162.638 30.8027 162.946 31.372C163.254 31.932 163.408 32.5807 163.408 33.318C163.408 33.3647 163.403 33.416 163.394 33.472C163.394 33.5187 163.394 33.57 163.394 33.626H156.996V32.884H162.862L162.47 33.178C162.47 32.646 162.353 32.1747 162.12 31.764C161.896 31.344 161.588 31.0173 161.196 30.784C160.804 30.5507 160.351 30.434 159.838 30.434C159.334 30.434 158.881 30.5507 158.48 30.784C158.078 31.0173 157.766 31.344 157.542 31.764C157.318 32.184 157.206 32.6647 157.206 33.206V33.36C157.206 33.92 157.327 34.4147 157.57 34.844C157.822 35.264 158.167 35.5953 158.606 35.838C159.054 36.0713 159.562 36.188 160.132 36.188C160.58 36.188 160.995 36.1087 161.378 35.95C161.77 35.7913 162.106 35.5487 162.386 35.222L162.946 35.866C162.619 36.258 162.208 36.5567 161.714 36.762C161.228 36.9673 160.692 37.07 160.104 37.07ZM169.832 37V35.376L169.79 35.11V32.394C169.79 31.7687 169.613 31.288 169.258 30.952C168.913 30.616 168.395 30.448 167.704 30.448C167.228 30.448 166.775 30.5273 166.346 30.686C165.917 30.8447 165.553 31.0547 165.254 31.316L164.806 30.574C165.179 30.2567 165.627 30.014 166.15 29.846C166.673 29.6687 167.223 29.58 167.802 29.58C168.754 29.58 169.487 29.818 170 30.294C170.523 30.7607 170.784 31.4747 170.784 32.436V37H169.832ZM167.298 37.07C166.747 37.07 166.267 36.9813 165.856 36.804C165.455 36.6173 165.147 36.3653 164.932 36.048C164.717 35.7213 164.61 35.348 164.61 34.928C164.61 34.5453 164.699 34.2 164.876 33.892C165.063 33.5747 165.361 33.3227 165.772 33.136C166.192 32.94 166.752 32.842 167.452 32.842H169.986V33.584H167.48C166.771 33.584 166.276 33.71 165.996 33.962C165.725 34.214 165.59 34.5267 165.59 34.9C165.59 35.32 165.753 35.656 166.08 35.908C166.407 36.16 166.864 36.286 167.452 36.286C168.012 36.286 168.493 36.16 168.894 35.908C169.305 35.6467 169.603 35.2733 169.79 34.788L170.014 35.474C169.827 35.9593 169.501 36.3467 169.034 36.636C168.577 36.9253 167.998 37.07 167.298 37.07ZM176.41 37.07C175.71 37.07 175.08 36.9113 174.52 36.594C173.969 36.2767 173.535 35.838 173.218 35.278C172.9 34.7087 172.742 34.0553 172.742 33.318C172.742 32.5713 172.9 31.918 173.218 31.358C173.535 30.798 173.969 30.364 174.52 30.056C175.08 29.7387 175.71 29.58 176.41 29.58C177.054 29.58 177.628 29.7247 178.132 30.014C178.645 30.3033 179.051 30.728 179.35 31.288C179.658 31.8387 179.812 32.5153 179.812 33.318C179.812 34.1113 179.662 34.788 179.364 35.348C179.065 35.908 178.659 36.3373 178.146 36.636C177.642 36.9253 177.063 37.07 176.41 37.07ZM176.48 36.188C177.002 36.188 177.469 36.0713 177.88 35.838C178.3 35.5953 178.626 35.2593 178.86 34.83C179.102 34.3913 179.224 33.8873 179.224 33.318C179.224 32.7393 179.102 32.2353 178.86 31.806C178.626 31.3767 178.3 31.0453 177.88 30.812C177.469 30.5693 177.002 30.448 176.48 30.448C175.966 30.448 175.504 30.5693 175.094 30.812C174.683 31.0453 174.356 31.3767 174.114 31.806C173.871 32.2353 173.75 32.7393 173.75 33.318C173.75 33.8873 173.871 34.3913 174.114 34.83C174.356 35.2593 174.683 35.5953 175.094 35.838C175.504 36.0713 175.966 36.188 176.48 36.188ZM179.252 37V34.788L179.35 33.304L179.21 31.82V26.612H180.204V37H179.252ZM186.094 37.07C185.329 37.07 184.657 36.9113 184.078 36.594C183.499 36.2673 183.047 35.824 182.72 35.264C182.393 34.6947 182.23 34.046 182.23 33.318C182.23 32.59 182.384 31.946 182.692 31.386C183.009 30.826 183.439 30.3873 183.98 30.07C184.531 29.7433 185.147 29.58 185.828 29.58C186.519 29.58 187.13 29.7387 187.662 30.056C188.203 30.364 188.628 30.8027 188.936 31.372C189.244 31.932 189.398 32.5807 189.398 33.318C189.398 33.3647 189.393 33.416 189.384 33.472C189.384 33.5187 189.384 33.57 189.384 33.626H182.986V32.884H188.852L188.46 33.178C188.46 32.646 188.343 32.1747 188.11 31.764C187.886 31.344 187.578 31.0173 187.186 30.784C186.794 30.5507 186.341 30.434 185.828 30.434C185.324 30.434 184.871 30.5507 184.47 30.784C184.069 31.0173 183.756 31.344 183.532 31.764C183.308 32.184 183.196 32.6647 183.196 33.206V33.36C183.196 33.92 183.317 34.4147 183.56 34.844C183.812 35.264 184.157 35.5953 184.596 35.838C185.044 36.0713 185.553 36.188 186.122 36.188C186.57 36.188 186.985 36.1087 187.368 35.95C187.76 35.7913 188.096 35.5487 188.376 35.222L188.936 35.866C188.609 36.258 188.199 36.5567 187.704 36.762C187.219 36.9673 186.682 37.07 186.094 37.07ZM191.421 37V29.65H192.373V31.652L192.275 31.302C192.48 30.742 192.826 30.3173 193.311 30.028C193.796 29.7293 194.398 29.58 195.117 29.58V30.546C195.08 30.546 195.042 30.546 195.005 30.546C194.968 30.5367 194.93 30.532 194.893 30.532C194.118 30.532 193.512 30.77 193.073 31.246C192.634 31.7127 192.415 32.38 192.415 33.248V37H191.421Z" fill="#F08F1E"/>
<path fill-rule="evenodd" clip-rule="evenodd" d="M259.81 105.945L189.469 211.164C187.934 213.459 184.829 214.076 182.533 212.542L3.72908 93.0072L14.6982 46.9998L259.81 105.945Z" fill="url(#paint0_linear_57_2084)"/>
<path fill-rule="evenodd" clip-rule="evenodd" d="M269 77.0771V211C269 213.762 266.761 216 264 216H48.842L30 165.209L269 77.0771Z" fill="url(#paint1_linear_57_2084)"/>
<path fill-rule="evenodd" clip-rule="evenodd" d="M82.4517 216C86.0324 199.302 87.918 181.968 87.918 164.191C87.918 101.46 64.4386 44.2528 25.849 1L6 1C3.23858 1 1 3.23858 1 6V211C1 213.761 3.23857 216 5.99999 216H82.4517Z" fill="url(#paint2_linear_57_2084)"/>
<path d="M67 217V207.25C67 189.149 74.1643 171.789 86.9167 158.99C99.6692 146.191 116.965 139 135 139C153.035 139 170.331 146.191 183.083 158.99C195.836 171.789 203 189.149 203 207.25V217M135 139C145.306 139 155.189 134.891 162.476 127.577C169.763 120.263 173.857 110.343 173.857 100C173.857 89.6566 169.763 79.7368 162.476 72.4228C155.189 65.1089 145.306 61 135 61C124.694 61 114.811 65.1089 107.524 72.4228C100.237 79.7368 96.1429 89.6566 96.1429 100C96.1429 110.343 100.237 120.263 107.524 127.577C114.811 134.891 124.694 139 135 139Z" fill="#FFDFB9"/>
</g>
<defs>
<linearGradient id="paint0_linear_57_2084" x1="17.7568" y1="29.8667" x2="126.875" y2="168.715" gradientUnits="userSpaceOnUse">
<stop offset="0.0279074" stop-color="#F08F1E"/>
<stop offset="1" stop-color="#FFBB6D"/>
</linearGradient>
<linearGradient id="paint1_linear_57_2084" x1="50.4555" y1="77.0772" x2="146.793" y2="267.483" gradientUnits="userSpaceOnUse">
<stop offset="0.0279074" stop-color="#F08F1E"/>
<stop offset="1" stop-color="#FFBB6D"/>
</linearGradient>
<linearGradient id="paint2_linear_57_2084" x1="-44.5" y1="-42" x2="128.795" y2="4.86331" gradientUnits="userSpaceOnUse">
<stop offset="0.0279074" stop-color="#F08F1E"/>
<stop offset="1" stop-color="#FFBB6D"/>
</linearGradient>
<clipPath id="clip0_57_2084">
<rect width="270" height="217" fill="white"/>
</clipPath>
</defs>
</svg>
